<svg width="123" height="75" viewBox="0 0 123 75" fill="none" xmlns="http://www.w3.org/2000/svg">
<path d="M60.5696 73.1292V0H76.2406V32.244H77.2177L103.891 0H122.674L95.1687 32.7439L123 73.1292H104.253L83.9494 43.0634L76.2406 52.3474V73.1292H60.5696Z" fill="white"/>
<path d="M7.36548 25.3232C8.39006 25.1211 9.4705 25.2048 10.3769 25.6865C10.8117 26.0046 11.2098 26.3597 11.611 26.717C11.7392 26.8298 11.8675 26.9425 11.9959 27.0551C13.1798 28.0977 14.3441 29.1616 15.5096 30.2241C17.492 32.0312 19.4939 33.8171 21.4972 35.6018C22.1408 36.1752 22.7844 36.7487 23.4279 37.3223C23.5055 37.3915 23.5831 37.4607 23.663 37.5319C25.5876 39.2478 27.5026 40.9738 29.4117 42.7063C29.5001 42.6191 29.5884 42.532 29.6794 42.4422C29.6057 42.3416 29.6057 42.3416 29.5305 42.239C27.917 40.0335 27.917 40.0335 27.4316 39.2561C26.9766 38.5317 26.4742 37.8456 25.9702 37.155C25.1816 36.0722 24.4099 34.9777 23.6382 33.8828C22.923 32.8683 22.2041 31.8567 21.4765 30.8511C21.4084 30.757 21.3404 30.6629 21.2703 30.5659C20.9437 30.1143 20.6165 29.6631 20.2883 29.2127C19.6967 28.3978 19.1202 27.5754 18.5762 26.7276C18.5269 26.6517 18.4776 26.5758 18.4268 26.4975C17.7397 25.4078 17.7071 24.2612 18.0111 22.9975C18.3327 22.0394 19.0345 21.3539 19.8852 20.8075C20.9407 20.2557 21.9343 20.1675 23.0599 20.4193C23.7428 20.6422 24.2225 20.9801 24.7157 21.4813C24.7788 21.5446 24.8419 21.6079 24.9069 21.6731C25.5548 22.3351 26.1235 23.0523 26.6842 23.7875C26.7944 23.9301 26.9046 24.0727 27.0149 24.2153C27.3029 24.5877 27.5895 24.9611 27.8759 25.3348C28.1593 25.7043 28.4438 26.073 28.7283 26.4417C28.8412 26.588 28.9541 26.7344 29.067 26.8808C29.1228 26.9531 29.1786 27.0255 29.2361 27.1C29.4054 27.3196 29.5745 27.5393 29.7437 27.759C30.7997 29.1302 31.8686 30.4912 32.9407 31.85C33.1938 32.1707 33.4466 32.4916 33.6993 32.8126C34.2928 33.5662 34.8866 34.3195 35.4811 35.0723C36.2305 36.0217 36.9787 36.9719 37.7211 37.9268C38.0544 38.3554 38.3886 38.7834 38.7229 39.2113C38.8804 39.4135 39.0376 39.6159 39.1942 39.8188C39.9419 40.7864 40.6978 41.7348 41.5597 42.6055C41.6218 42.6695 41.684 42.7336 41.748 42.7995C42.3076 43.345 42.9694 43.8065 43.7928 43.7895C44.7234 43.549 45.2252 43.1167 45.843 42.3683C46.6929 40.9234 46.4463 38.8588 46.4679 37.2787C46.4703 37.1139 46.4727 36.9491 46.4751 36.7843C46.4848 36.1017 46.4945 35.4191 46.5003 34.7366C46.504 34.3139 46.5099 33.8913 46.5172 33.4685C46.5207 33.2341 46.5218 32.9998 46.5229 32.7654C46.5544 31.1036 46.9522 29.9055 48.158 28.7051C49.2765 27.6447 50.5939 27.3005 52.0772 27.2344C53.7809 27.2405 54.9965 27.9043 56.1259 29.0606C57.0962 30.1379 57.2 31.5218 57.1918 32.9443C57.1924 33.1801 57.193 33.4159 57.1936 33.6517C57.1936 33.7718 57.1935 33.8918 57.1935 34.0155C57.1943 34.3664 57.1984 34.717 57.204 35.0676C57.2259 36.5047 57.2144 37.9397 57.1728 39.379C57.1548 40.0482 57.1565 40.7056 57.2018 41.3709C57.2232 41.7406 57.21 42.108 57.1978 42.4795C57.1922 42.7364 57.1867 42.9933 57.1815 43.2502C57.1449 44.9856 57.1449 44.9856 57.136 45.3958C57.1303 45.6725 57.1256 45.9491 57.1214 46.2258C57.1081 46.6989 57.0772 47.1705 57.045 47.6435C57.0002 48.3275 56.9682 49.0083 56.958 49.6924C56.9488 50.288 56.9171 50.8749 56.857 51.4696C56.8357 51.696 56.8189 51.9227 56.8058 52.1494C56.5368 56.7627 55.3046 61.7167 52.6346 65.6627C52.5626 65.7695 52.4905 65.8764 52.4162 65.9865C52.209 66.2913 51.9998 66.5947 51.7895 66.8976C51.6959 67.0324 51.6023 67.1672 51.5058 67.3061C48.8047 70.9508 44.7433 73.683 40.3148 74.6403C39.8614 74.7175 39.4101 74.779 38.9543 74.8329C38.8705 74.8437 38.7867 74.8545 38.7004 74.8656C33.3254 75.5562 29.178 73.4753 24.66 71.1273C23.0345 70.2827 21.4021 69.451 19.7675 68.6229C19.6471 68.562 19.5267 68.501 19.4028 68.4381C18.8155 68.1406 18.2281 67.8432 17.6407 67.5458C16.8863 67.1639 16.1324 66.7812 15.3784 66.3984C14.3844 65.8939 13.3894 65.3911 12.3932 64.8905C11.0432 64.211 9.69799 63.5231 8.35419 62.8324C7.21871 62.2489 6.08092 61.6697 4.94088 61.0945C4.82887 61.0378 4.71686 60.9812 4.60146 60.9229C4.50425 60.8738 4.40704 60.8248 4.30689 60.7743C3.24679 60.2235 2.30731 59.4052 1.90776 58.2645C1.6017 57.0466 1.83222 55.9423 2.423 54.8115C3.23204 53.8382 4.18896 53.2854 5.42503 53.0528C6.75413 52.9277 7.89895 53.4544 9.0609 53.9796C9.50978 54.1825 9.96072 54.3812 10.4113 54.5805C10.5094 54.624 10.6074 54.6675 10.7084 54.7124C12.1923 55.3693 13.6893 55.9989 15.1842 56.6327C16.3986 57.1478 17.6127 57.663 18.8133 58.2066C18.9371 58.2624 18.9371 58.2624 19.0634 58.3193C19.6198 58.5739 19.6198 58.5739 19.812 58.7635C19.8709 58.7054 19.9298 58.6473 19.9904 58.5875C19.9346 58.5463 19.8788 58.5051 19.8213 58.4626C19.1087 57.9367 18.3963 57.4104 17.684 56.8841C17.5701 56.7999 17.4562 56.7158 17.3389 56.6291C15.8784 55.5497 14.4196 54.4684 12.9753 53.3684C12.3538 52.897 11.723 52.441 11.084 51.9926C10.0043 51.234 8.95934 50.4339 7.91417 49.6309C6.90349 48.8551 5.88082 48.1041 4.82945 47.3815C0.342226 44.2944 0.342226 44.2944 0.0137787 42.212C-0.0527013 41.3527 0.115543 40.408 0.646108 39.6778C1.55643 38.6368 2.41009 37.9658 3.79267 37.7976C5.3637 37.7236 6.52137 38.422 7.728 39.287C7.94126 39.4375 8.15467 39.5878 8.36823 39.7378C8.47659 39.814 8.58495 39.8902 8.6966 39.9687C9.20797 40.3245 9.72681 40.6693 10.2469 41.013C10.3988 41.1135 10.3988 41.1135 10.5539 41.2161C10.8616 41.4194 11.1694 41.6224 11.4774 41.8254C12.8378 42.722 14.191 43.6259 15.5237 44.5611C16.1201 44.9789 16.7243 45.3817 17.3401 45.7721C18.4933 46.5078 19.6102 47.2921 20.7296 48.0751C21.3298 48.4945 21.9352 48.9062 22.5452 49.3121C22.5747 49.283 22.6041 49.254 22.6345 49.2241C22.5433 49.134 22.4521 49.0439 22.3581 48.9512C20.1373 46.7575 17.919 44.5612 15.7034 42.3624C14.6318 41.2991 13.5595 40.2366 12.4852 39.1761C11.5486 38.2514 10.6135 37.3253 9.68035 36.3973C9.1864 35.9062 8.6917 35.4159 8.1951 34.9274C7.72716 34.467 7.26137 34.0047 6.79711 33.5407C6.62688 33.3713 6.45589 33.2026 6.28408 33.0348C5.236 32.0099 4.35816 31.0706 4.17473 29.5366C4.24049 27.5639 5.34291 25.9029 7.36548 25.3232Z" fill="white"/>
</svg>
