<svg width="264" height="163" viewBox="0 0 264 163" fill="none" xmlns="http://www.w3.org/2000/svg">
<path d="M130.003 158.934V0H163.638V70.077H165.736L222.985 0H263.301L204.265 71.1634L264 158.934H223.762L180.184 93.5912L163.638 113.768V158.934H130.003Z" fill="white"/>
<path d="M15.8088 55.0358C18.0079 54.5964 20.3269 54.7784 22.2724 55.8254C23.2055 56.5166 24.06 57.2883 24.9211 58.065C25.1964 58.31 25.4718 58.5549 25.7473 58.7997C28.2883 61.0657 30.7874 63.3779 33.2888 65.6869C37.5439 69.6145 41.8406 73.4957 46.1404 77.3745C47.5218 78.6208 48.9031 79.8672 50.2842 81.1138C50.4508 81.2642 50.6173 81.4145 50.7889 81.5694C54.9197 85.2985 59.0301 89.0496 63.1276 92.8149C63.3172 92.6255 63.5068 92.4361 63.7022 92.241C63.544 92.0224 63.544 92.0224 63.3826 91.7995C59.9193 87.0062 59.9194 87.0062 58.8777 85.3166C57.9009 83.7422 56.8226 82.251 55.741 80.7501C54.0484 78.3968 52.392 76.0182 50.7357 73.6385C49.2005 71.4338 47.6576 69.2352 46.0958 67.0497C45.9498 66.8451 45.8038 66.6406 45.6533 66.4299C44.9524 65.4484 44.2501 64.4678 43.5457 63.4889C42.2759 61.7178 41.0385 59.9306 39.8709 58.088C39.765 57.923 39.6592 57.7579 39.5501 57.5879C38.0755 55.2196 38.0054 52.7276 38.6579 49.9813C39.3482 47.899 40.8545 46.4092 42.6803 45.2216C44.9458 44.0223 47.0785 43.8307 49.4944 44.3779C50.9601 44.8623 51.9898 45.5967 53.0483 46.6859C53.1837 46.8235 53.3191 46.9611 53.4586 47.1029C54.8494 48.5416 56.07 50.1002 57.2735 51.6981C57.5099 52.0081 57.7465 52.318 57.9833 52.6278C58.6013 53.4373 59.2166 54.2488 59.8312 55.061C60.4395 55.864 61.0501 56.6653 61.6607 57.4666C61.903 57.7847 62.1453 58.1027 62.3876 58.4208C62.5074 58.5781 62.6272 58.7353 62.7506 58.8974C63.114 59.3745 63.4771 59.852 63.8401 60.3294C66.1068 63.3096 68.4009 66.2676 70.702 69.2207C71.2452 69.9177 71.7878 70.6151 72.3303 71.3126C73.6041 72.9504 74.8786 74.5876 76.1546 76.2237C77.7631 78.2871 79.369 80.3523 80.9623 82.4276C81.6778 83.3591 82.3951 84.2892 83.1125 85.2192C83.4507 85.6586 83.7879 86.0986 84.1242 86.5394C85.7289 88.6423 87.3514 90.7037 89.2012 92.596C89.3346 92.7351 89.468 92.8743 89.6055 93.0176C90.8066 94.203 92.227 95.2061 93.9942 95.1693C95.9917 94.6465 97.0687 93.707 98.3948 92.0803C100.219 88.9401 99.6895 84.4531 99.7361 81.019C99.7412 80.6608 99.7463 80.3027 99.7514 79.9445C99.7722 78.4609 99.7931 76.9774 99.8056 75.4942C99.8135 74.5756 99.8262 73.657 99.8419 72.7383C99.8493 72.2288 99.8518 71.7194 99.854 71.2101C99.9217 67.5984 100.775 64.9945 103.364 62.3857C105.764 60.0811 108.592 59.333 111.776 59.1895C115.432 59.2026 118.041 60.6452 120.465 63.1583C122.548 65.4997 122.771 68.5073 122.753 71.599C122.754 72.1114 122.756 72.6239 122.757 73.1363C122.757 73.3973 122.757 73.6582 122.757 73.9271C122.758 74.6897 122.767 75.4515 122.779 76.2136C122.826 79.3368 122.802 82.4555 122.712 85.5837C122.674 87.0382 122.677 88.4667 122.775 89.9127C122.821 90.7163 122.792 91.5147 122.766 92.322C122.754 92.8803 122.742 93.4387 122.731 93.997C122.652 97.7686 122.652 97.7686 122.633 98.6602C122.621 99.2615 122.611 99.8628 122.602 100.464C122.573 101.492 122.507 102.517 122.438 103.545C122.342 105.032 122.273 106.511 122.251 107.998C122.232 109.293 122.164 110.568 122.035 111.86C121.989 112.353 121.953 112.845 121.925 113.338C121.347 123.364 118.703 134.131 112.972 142.707C112.817 142.939 112.662 143.171 112.503 143.411C112.058 144.073 111.609 144.733 111.158 145.391C110.957 145.684 110.756 145.977 110.549 146.279C104.752 154.2 96.0344 160.138 86.5294 162.218C85.5563 162.386 84.5876 162.52 83.6091 162.637C83.4294 162.66 83.2496 162.684 83.0644 162.708C71.5278 164.209 62.626 159.686 52.9287 154.583C49.4399 152.748 45.9362 150.94 42.4277 149.141C42.1694 149.008 41.9111 148.875 41.6449 148.739C40.3844 148.092 39.1238 147.446 37.863 146.8C36.2438 145.969 34.6256 145.138 33.0073 144.306C30.8738 143.209 28.7382 142.117 26.6001 141.029C23.7025 139.552 20.8152 138.057 17.9309 136.556C15.4938 135.288 13.0517 134.029 10.6048 132.779C10.3644 132.656 10.124 132.532 9.8763 132.406C9.66766 132.299 9.45902 132.193 9.24406 132.083C6.96873 130.886 4.95227 129.107 4.09471 126.628C3.4378 123.981 3.93257 121.581 5.20059 119.124C6.93706 117.008 8.99093 115.807 11.644 115.301C14.4967 115.029 16.9538 116.174 19.4478 117.316C20.4112 117.757 21.3791 118.188 22.3462 118.622C22.5567 118.716 22.7671 118.811 22.984 118.908C26.1689 120.336 29.382 121.704 32.5905 123.082C35.197 124.201 37.8028 125.321 40.3797 126.502C40.6455 126.624 40.6455 126.624 40.9167 126.747C42.1109 127.301 42.1109 127.301 42.5233 127.713C42.6497 127.586 42.7761 127.46 42.9063 127.33C42.7865 127.241 42.6667 127.151 42.5433 127.059C41.0138 125.916 39.4848 124.772 37.956 123.628C37.7115 123.445 37.467 123.262 37.2151 123.074C34.0804 120.728 30.9494 118.378 27.8494 115.987C26.5155 114.963 25.1616 113.972 23.7901 112.997C21.4726 111.348 19.2298 109.61 16.9865 107.864C14.8173 106.178 12.6222 104.546 10.3656 102.976C0.734535 96.2664 0.734535 96.2664 0.0295737 91.7408C-0.113115 89.8731 0.247997 87.82 1.38677 86.2331C3.34063 83.9706 5.17289 82.5122 8.14037 82.1468C11.5123 81.986 13.9971 83.5037 16.5869 85.3838C17.0447 85.7108 17.5027 86.0374 17.9611 86.3635C18.1937 86.5291 18.4262 86.6947 18.6659 86.8653C19.7634 87.6385 20.877 88.388 21.9933 89.1348C22.3195 89.3533 22.3195 89.3533 22.6522 89.5762C23.3126 90.0181 23.9734 90.4594 24.6343 90.9004C27.5542 92.849 30.4587 94.8136 33.3191 96.8462C34.5992 97.7541 35.896 98.6296 37.2177 99.4779C39.6929 101.077 42.0901 102.782 44.4928 104.483C45.7811 105.395 47.0805 106.289 48.3898 107.172C48.453 107.108 48.5162 107.045 48.5813 106.98C48.3856 106.785 48.1899 106.589 47.9882 106.387C43.2215 101.62 38.4603 96.8464 33.7048 92.0676C31.4049 89.7567 29.1033 87.4476 26.7975 85.1426C24.7872 83.1331 22.7803 81.1203 20.7773 79.1034C19.7171 78.0361 18.6554 76.9705 17.5895 75.9088C16.5851 74.9083 15.5854 73.9035 14.5889 72.8951C14.2235 72.527 13.8565 72.1604 13.4878 71.7956C11.2382 69.5682 9.3541 67.5268 8.96039 64.1929C9.10154 59.9056 11.4677 56.2956 15.8088 55.0358Z" fill="white"/>
</svg>
